<?xml version="1.0" standalone="no"?>
<!DOCTYPE svg PUBLIC "-//W3C//DTD SVG 20010904//EN"
 "http://www.w3.org/TR/2001/REC-SVG-20010904/DTD/svg10.dtd">
<svg version="1.0" xmlns="http://www.w3.org/2000/svg"
 width="1024.000000pt" height="1024.000000pt" viewBox="0 0 1024.000000 1024.000000"
 preserveAspectRatio="xMidYMid meet">
<metadata>
Created by potrace 1.11, written by Peter Selinger 2001-2013
</metadata>
<g transform="translate(0.000000,1024.000000) scale(0.100000,-0.100000)"
fill="#000000" stroke="none">
<path d="M0 5120 l0 -5120 5120 0 5120 0 0 5120 0 5120 -5120 0 -5120 0 0
-5120z m4850 940 c153 -39 300 -120 424 -232 l59 -54 -165 -169 -166 -170 -53
50 c-106 99 -195 136 -335 136 -434 2 -665 -515 -373 -835 171 -187 425 -222
632 -87 34 22 78 56 97 76 19 19 39 35 46 35 13 0 314 -306 314 -319 0 -16
-126 -127 -196 -173 -276 -182 -573 -218 -875 -104 -416 156 -667 555 -628
999 38 426 366 781 796 862 113 21 313 14 423 -15z m1646 4 c154 -31 290 -90
404 -174 76 -57 144 -124 139 -138 -4 -10 -326 -302 -333 -302 -3 0 -31 26
-63 58 -69 70 -122 105 -212 140 -59 23 -80 26 -196 26 -115 1 -136 -2 -181
-22 -71 -32 -105 -70 -111 -124 -5 -39 -2 -48 25 -75 41 -40 106 -57 343 -87
107 -14 228 -32 269 -41 334 -70 483 -230 484 -520 1 -177 -55 -299 -193 -427
-174 -161 -474 -249 -749 -220 -252 26 -476 129 -664 304 -37 35 -69 68 -70
74 -2 5 73 78 166 162 l169 151 72 -67 c86 -80 157 -124 257 -160 64 -23 88
-27 193 -27 141 0 228 24 287 78 72 66 68 156 -9 195 -58 30 -101 39 -318 67
-261 34 -360 57 -472 111 -175 84 -256 203 -270 401 -23 321 215 562 622 629
100 17 302 11 411 -12z m1599 16 c241 -28 456 -124 598 -268 l58 -59 -171
-152 -170 -153 -74 69 c-124 116 -239 163 -401 163 -140 0 -245 -43 -278 -113
-23 -48 -21 -70 8 -105 42 -50 107 -67 395 -103 301 -37 459 -90 565 -190 107
-101 140 -190 139 -369 0 -111 -3 -133 -27 -194 -67 -170 -210 -302 -415 -381
-395 -152 -844 -61 -1156 236 -42 39 -76 75 -76 79 0 6 161 155 302 279 l38
33 57 -57 c133 -131 260 -191 428 -201 203 -13 357 59 372 174 4 31 0 44 -22
70 -37 44 -116 66 -350 97 -216 29 -324 49 -399 75 -220 75 -332 216 -351 437
-28 332 241 584 680 636 63 8 164 6 250 -3z m-5939 -246 c93 -129 201 -280
239 -334 39 -54 73 -102 77 -105 3 -3 85 103 181 237 97 134 207 286 244 338
l69 95 243 3 c252 2 271 0 271 -39 0 -10 -53 -89 -118 -176 -66 -87 -286 -383
-491 -658 -205 -275 -378 -506 -385 -513 -10 -10 -61 51 -261 320 -137 183
-363 485 -502 671 -139 185 -253 342 -253 349 0 6 7 20 17 30 15 16 36 18 258
18 l242 0 169 -236z m1324 -794 l0 -890 -245 0 -245 0 0 553 0 554 93 128 c50
70 143 198 205 284 62 86 130 180 150 208 20 29 38 53 40 53 1 0 2 -400 2
-890z m-1854 680 c77 -104 183 -249 237 -322 l97 -132 0 -558 0 -558 -245 0
-245 0 0 886 c0 505 4 883 9 880 5 -3 71 -91 147 -196z"/>
</g>
</svg>
